<?xml version="1.0" encoding="UTF-8"?>
<svg width="57px" height="45px" viewBox="0 0 57 45" version="1.1" xmlns="http://www.w3.org/2000/svg" xmlns:xlink="http://www.w3.org/1999/xlink">
    <title>􀍖</title>
    <g id="Portfolio-(Signal)" stroke="none" stroke-width="1" fill="none" fill-rule="evenodd">
        <g id="􀍖" transform="translate(0.2256, 0.3271)" fill="#A7E000" fill-rule="nonzero">
            <path d="M28.1738281,24.1943359 C29.1910807,24.1943359 30.2571615,23.6368815 31.3720703,22.5219727 L52.734375,1.19628906 C51.7252604,0.398763021 50.0406901,0 47.6806641,0 L8.21533203,0 C6.04248047,0 4.48811849,0.382486979 3.55224609,1.14746094 L24.9755859,22.5219727 C26.0904948,23.6368815 27.1565755,24.1943359 28.1738281,24.1943359 Z M0.732421875,39.6850586 L18.7133789,21.7895508 L0.87890625,4.17480469 C0.29296875,5.09440104 0,6.55517578 0,8.55712891 L0,35.5834961 C0,37.4471029 0.244140625,38.8142904 0.732421875,39.6850586 Z M8.61816406,44.152832 L48.0834961,44.152832 C50.378418,44.152832 52.0385742,43.7133789 53.0639648,42.8344727 L34.753418,24.597168 L33.4350586,25.9277344 C31.7342122,27.5797526 29.9804687,28.4057617 28.1738281,28.4057617 C26.3590495,28.4057617 24.601237,27.5797526 22.9003906,25.9277344 L21.5820312,24.621582 L3.29589844,42.8222656 C4.39453125,43.7093099 6.16861979,44.152832 8.61816406,44.152832 Z M55.5908203,39.6728516 C56.0709635,38.7939453 56.3110352,37.4308268 56.3110352,35.5834961 L56.3110352,8.55712891 C56.3110352,6.5633138 56.0221354,5.11474609 55.4443359,4.21142578 L37.6220703,21.7895508 L55.5908203,39.6728516 Z" id="Shape"></path>
        </g>
    </g>
</svg>