<?xml version="1.0" encoding="UTF-8"?>
<svg width="306px" height="552px" viewBox="0 0 306 552" version="1.1" xmlns="http://www.w3.org/2000/svg" xmlns:xlink="http://www.w3.org/1999/xlink">
    <title>mar co tri ve rio. copy</title>
    <g id="Portfolio-(Signal)" stroke="none" stroke-width="1" fill="none" fill-rule="evenodd">
        <g id="mar-co-tri-ve-rio.-copy" transform="translate(0.5, 0.75)" fill="#212121" fill-rule="nonzero">
            <path d="M108.9,0 C94.2,0 87.45,9.15 84.45,22.65 L80.1,22.65 C77.85,9.45 71.85,0 57.6,0 C42.9,0 36,9.15 33,22.65 L27,22.65 L31.5,9.15 L31.5,1.5 L7.5,1.5 L7.5,77.25 L31.5,77.25 L31.5,50.7 C31.5,32.4 34.5,21 47.55,21 C56.4,21 58.8,25.05 58.8,39.45 L58.8,77.25 L82.8,77.25 L82.8,50.7 C82.8,32.4 85.8,21 98.85,21 C107.7,21 110.1,25.05 110.1,39.45 L110.1,77.25 L134.1,77.25 L134.1,37.8 C134.1,17.4 128.25,0 108.9,0 Z" id="Path"></path>
            <path d="M144.6,56.55 C144.6,64.35 148.65,78.75 172.2,78.75 C193.35,78.75 200.7,68.1 203.55,55.5 L209.55,55.5 L205.8,64.5 L205.8,66 C205.8,73.2 209.85,77.25 217.05,77.25 L233.7,77.25 L233.7,56.25 L222.75,56.25 L222.75,34.95 C222.75,10.05 204.45,0 183.6,0 C162.45,0 146.1,11.25 146.1,30.45 L168.6,30.45 C168.6,23.55 174,19.5 183.6,19.5 C193.95,19.5 198.75,23.25 198.75,29.4 L174.9,32.7 C152.4,35.85 144.6,43.5 144.6,56.55 Z M168.6,52.05 C168.6,47.7 172.2,46.65 179.4,45.6 L198.75,42.9 C198.75,52.2 190.05,57.75 176.85,57.75 C172.8,57.75 168.6,56.4 168.6,52.05 Z" id="Shape"></path>
            <path d="M242.7,77.25 L266.7,77.25 L266.7,21.6 L305.25,22.5 L305.25,1.5 L255.6,0.3 C247.35,0.15 242.7,4.65 242.7,12.9 L242.7,77.25 Z" id="Path"></path>
            <path d="M4.5,157.3 C4.5,182.65 21.75,196.75 45.9,196.75 C66.6,196.75 85.5,185.5 86.55,163.9 L62.55,163.9 C61.65,170.65 55.5,175.75 45.9,175.75 C34.5,175.75 28.5,169 28.5,157.3 C28.5,145.75 34.5,139 45.9,139 C55.5,139 61.65,144.1 62.55,150.85 L86.55,150.85 C85.5,129.25 66.6,118 45.9,118 C21.75,118 4.5,132.1 4.5,157.3 Z" id="Path"></path>
            <path d="M94.05,157.3 C94.05,183.85 112.95,196.75 136.8,196.75 C160.5,196.75 179.4,183.85 179.4,157.3 C179.4,130.9 160.5,118 136.8,118 C112.95,118 94.05,130.9 94.05,157.3 Z M118.05,157.3 C118.05,144.7 125.4,139 136.8,139 C148.05,139 155.4,144.7 155.4,157.3 C155.4,170.05 148.05,175.75 136.8,175.75 C125.4,175.75 118.05,170.05 118.05,157.3 Z" id="Shape"></path>
            <path d="M42,293.75 L42,258.5 L66.9,258.5 L66.9,237.5 L42,237.5 L42,215.75 L18,223.25 L18,237.5 L0,237.5 L0,258.5 L18,258.5 L18,302 C18,310.25 22.5,315.05 30.75,314.75 L69.9,313.25 L69.9,292.25 L42,293.75 Z" id="Path"></path>
            <path d="M80.4,313.25 L104.4,313.25 L104.4,257.6 L142.95,258.5 L142.95,237.5 L93.3,236.3 C85.05,236.15 80.4,240.65 80.4,248.9 L80.4,313.25 Z" id="Path"></path>
            <path d="M181.5,230 C190.35,230 195.9,225.8 195.9,218 C195.9,210.35 190.35,206 181.5,206 C172.65,206 167.4,210.35 167.4,218 C167.4,225.8 172.65,230 181.5,230 Z M150.45,313.25 L216.45,313.25 L216.45,292.25 L195,292.25 L195,248.6 C195,240.2 190.35,235.55 181.95,236 L153.45,237.5 L153.45,258.5 L171.9,257.6 L171.9,292.25 L150.45,292.25 L150.45,313.25 Z" id="Shape"></path>
            <polygon id="Path" points="64.35 355.5 47.1 425.25 41.1 425.25 23.7 355.5 0 355.5 19.35 431.25 68.85 431.25 88.05 355.5"></polygon>
            <path d="M91.05,392.4 C91.05,413.85 104.4,432.75 133.5,432.75 C159.75,432.75 172.2,415.5 173.7,404.55 L149.7,404.55 C148.2,410.25 141.9,413.25 133.5,413.25 C119.85,413.25 113.55,407.1 113.55,398.4 L171,398.4 L171,390.9 C171,367.95 154.5,354 130.95,354 C107.4,354 91.05,368.4 91.05,392.4 Z M113.55,384.9 C113.55,379.2 117.6,373.5 130.95,373.5 C144.3,373.5 148.5,379.2 148.5,384.9 L113.55,384.9 Z" id="Shape"></path>
            <path d="M7.5,549.25 L31.5,549.25 L31.5,493.6 L70.05,494.5 L70.05,473.5 L20.4,472.3 C12.15,472.15 7.5,476.65 7.5,484.9 L7.5,549.25 Z" id="Path"></path>
            <path d="M108.6,466 C117.45,466 123,461.8 123,454 C123,446.35 117.45,442 108.6,442 C99.75,442 94.5,446.35 94.5,454 C94.5,461.8 99.75,466 108.6,466 Z M77.55,549.25 L143.55,549.25 L143.55,528.25 L122.1,528.25 L122.1,484.6 C122.1,476.2 117.45,471.55 109.05,472 L80.55,473.5 L80.55,494.5 L99,493.6 L99,528.25 L77.55,528.25 L77.55,549.25 Z" id="Shape"></path>
            <path d="M148.05,511.3 C148.05,537.85 166.95,550.75 190.8,550.75 C214.5,550.75 233.4,537.85 233.4,511.3 C233.4,484.9 214.5,472 190.8,472 C166.95,472 148.05,484.9 148.05,511.3 Z M172.05,511.3 C172.05,498.7 179.4,493 190.8,493 C202.05,493 209.4,498.7 209.4,511.3 C209.4,524.05 202.05,529.75 190.8,529.75 C179.4,529.75 172.05,524.05 172.05,511.3 Z" id="Shape"></path>
            <path d="M260.25,550.75 C270.15,550.75 276.9,543.55 276.9,534.1 C276.9,524.95 270.15,517.75 260.25,517.75 C250.05,517.75 243.9,524.95 243.9,534.1 C243.9,543.55 250.05,550.75 260.25,550.75 Z" id="Path"></path>
        </g>
    </g>
</svg>